<?xml version="1.0" standalone="no"?>
<!DOCTYPE svg PUBLIC "-//W3C//DTD SVG 1.1//EN" "http://www.w3.org/Graphics/SVG/1.1/DTD/svg11.dtd" >
<svg xmlns="http://www.w3.org/2000/svg">
  <metadata>Created by iconfont</metadata>
  <defs>
  <font id="iconfont" horiz-adv-x="1024">
    <font-face
      font-family="iconfont"
      font-weight="400"
      font-stretch="normal"
      units-per-em="1024"
      ascent="896"
      descent="-128"
    />
      <missing-glyph />
      
      <glyph glyph-name="jilu" unicode="&#58935;" d="M583.6544 345.72288h-138.4448A37.09952 37.09952 0 0 0 409.6 382.78144 37.08928 37.08928 0 0 0 445.2096 419.84h138.4448a37.08416 37.08416 0 0 0 0-74.11712zM87.04 384c0 234.7008 190.2592 424.96 424.96 424.96s424.96-190.2592 424.96-424.96c0-69.53472-16.67584-135.10656-46.24896-193.00352l-52.33152 75.22816a35.84 35.84 0 1 1-58.84416-40.92928l81.92-117.76512c1.65376-2.37568 3.54304-4.49024 5.61664-6.33344a35.84 35.84 0 0 1 56.05376 4.10624C977.1008 184.7808 1008.64 280.76032 1008.64 384c0 274.28864-222.35136 496.64-496.64 496.64S15.36 658.28864 15.36 384s222.35136-496.64 496.64-496.64a496.2304 496.2304 0 0 1 155.49952 24.83712 35.84 35.84 0 0 1-22.43072 68.08576A424.3968 424.3968 0 0 0 512-40.96c-234.7008 0-424.96 190.2592-424.96 424.96z"  horiz-adv-x="1024" />
      
      <glyph glyph-name="gouwuche" unicode="&#58936;" d="M17.92 824.32a35.84 35.84 0 0 0 35.84 35.84h59.88864c48.04096 0 88.89344-35.072 96.15872-82.56l99.24096-648.35584A25.6 25.6 0 0 1 334.35136 107.52H854.3744a25.6 25.6 0 0 1 25.41056 22.51264l51.63008 424.96A25.6 25.6 0 0 1 906.00448 583.68H358.4a35.84 35.84 0 1 0 0 71.68h547.60448c58.37824 0 103.60832-51.06176 96.56832-109.01504l-51.63008-424.96C945.00864 72.55552 903.56224 35.84 854.3744 35.84H334.35136c-48.04096 0-88.89344 35.072-96.15872 82.56L138.95168 766.75584A25.6 25.6 0 0 1 113.64864 788.48H53.76a35.84 35.84 0 0 0-35.84 35.84zM445.44-48.64c0-29.69088-24.06912-53.76-53.76-53.76S337.92-78.33088 337.92-48.64 361.98912 5.12 391.68 5.12 445.44-18.94912 445.44-48.64zM839.68-48.64c0-29.69088-24.06912-53.76-53.76-53.76s-53.76 24.06912-53.76 53.76 24.06912 53.76 53.76 53.76 53.76-24.06912 53.76-53.76zM665.5744 227.96288h-138.4448A37.09952 37.09952 0 0 0 491.52 265.02144a37.08928 37.08928 0 0 0 35.6096 37.05856h138.4448a37.09952 37.09952 0 0 0 35.6096-37.05856 37.09952 37.09952 0 0 0-35.6096-37.05856z"  horiz-adv-x="1024" />
      
      <glyph glyph-name="rili1" unicode="&#58937;" d="M35.84 665.6c0 70.69184 57.30816 128 128 128h701.44c70.69184 0 128-57.30816 128-128v-606.72a35.84 35.84 0 1 0-71.68 0V665.6c0 31.104-25.216 56.32-56.32 56.32H163.84c-31.104 0-56.32-25.216-56.32-56.32v-650.24c0-31.104 25.216-56.32 56.32-56.32h624.64a35.84 35.84 0 1 0 0-71.68H163.84c-70.69184 0-128 57.30816-128 128V665.6zM593.8944 120.44288h-138.4448A37.09952 37.09952 0 0 0 419.84 157.50144 37.08928 37.08928 0 0 0 455.4496 194.56h138.4448a37.09952 37.09952 0 0 0 35.6096-37.05856 37.09952 37.09952 0 0 0-35.6096-37.05856zM317.44 875.52a35.84 35.84 0 0 0 35.84-35.84v-143.36a35.84 35.84 0 1 0-71.68 0V839.68a35.84 35.84 0 0 0 35.84 35.84zM711.68 875.52a35.84 35.84 0 0 0 35.84-35.84v-143.36a35.84 35.84 0 1 0-71.68 0V839.68a35.84 35.84 0 0 0 35.84 35.84z"  horiz-adv-x="1024" />
      
      <glyph glyph-name="dianzan" unicode="&#58938;" d="M629.7344 89.7536h-138.4448a37.07904 37.07904 0 0 0 0 74.112h138.4448a37.08928 37.08928 0 0 0 0-74.112zM410.2912 739.5072c34.1504 86.12864 163.3536 49.32096 146.99008-41.87136l-10.69056-59.53536c-16.33792-91.04896 53.64736-174.71488 146.14528-174.71488h122.5728c79.39584 0 136.0384-76.95872 112.44032-152.76032l-89.00608-285.89568a46.08 46.08 0 0 0-43.99616-32.384H345.6a35.84 35.84 0 1 1 0-71.68h449.14688a117.76 117.76 0 0 1 112.4352 82.75968l89.00608 285.89056c37.9648 121.94816-53.16096 245.74976-180.87936 245.74976H692.736c-47.8464 0-84.0448 43.27424-75.59168 90.368l10.68544 59.54048c31.64672 176.29696-218.1632 247.45984-284.17024 80.9472L243.6864 513.75616l-22.42048-45.66528-38.05184-77.5168a112.55808 112.55808 0 0 1-7.3728-19.34336H133.12c-59.38176 0-107.52-48.13824-107.52-107.52v-250.88c0-48.07168 38.96832-87.04 87.04-87.04h46.08c48.07168 0 87.04 38.96832 87.04 87.04v69.0688V354.72896c0.51712 1.44384 1.11616 2.8672 1.792 4.2496l38.06208 77.5168 23.04 46.94016 0.61952 1.26976 0.52224 1.31584 100.49536 253.4912z m-238.22848-439.9616L174.08 81.78176v-68.95616a15.36 15.36 0 0 0-15.36-15.36h-46.08a15.36 15.36 0 0 0-15.36 15.36v250.88a35.84 35.84 0 0 0 35.84 35.84h38.94272z"  horiz-adv-x="1024" />
      
      <glyph glyph-name="jigou" unicode="&#58939;" d="M76.8 773.12c0 59.38176 48.13824 107.52 107.52 107.52h399.36c59.38176 0 107.52-48.13824 107.52-107.52v-814.08h168.96V435.2a35.84 35.84 0 0 1-35.84 35.84h-4.14208a35.84 35.84 0 0 0 0 71.68H824.32c59.38176 0 107.52-48.13824 107.52-107.52v-476.16h51.2a35.84 35.84 0 1 0 0-71.68H40.96a35.84 35.84 0 1 0 0 71.68h35.84V773.12z m71.68-814.08h471.04V773.12a35.84 35.84 0 0 1-35.84 35.84H184.32a35.84 35.84 0 0 1-35.84-35.84v-814.08zM455.6544 611.96288h-138.4448a37.08416 37.08416 0 0 0 0 74.11712h138.4448a37.08928 37.08928 0 0 0 0-74.11712z"  horiz-adv-x="1024" />
      
      <glyph glyph-name="paizhao" unicode="&#58940;" d="M387.5328 736.512l0.18944 0.0512c-0.75264-0.29696-0.91136-0.2816-0.18432-0.0512z m3.44064 0.80896c0.64512 0.13312 1.3824 0.27136 2.2272 0.41984 6.5536 1.14688 16.09216 2.24256 28.21632 3.16416 24.05376 1.82784 55.38816 2.77504 87.08096 2.77504 31.69792 0 62.96576-0.9472 86.89664-2.77504 12.07296-0.9216 21.51936-2.01216 27.96032-3.15392l1.408-0.26112c12.55424-13.44512 25.69728-30.62784 39.47008-48.62976l5.89312-7.70048c8.46336-11.02848 17.23392-22.272 25.56928-31.67744 7.45984-8.4224 17.42336-18.7392 28.77952-25.15968 6.38464-3.7376 12.928-5.41696 16.69632-6.26176 4.77184-1.0752 9.87648-1.80224 14.81728-2.32448 9.92768-1.05984 21.79584-1.58208 34.20672-1.792 24.96-0.41984 54.90688 0.37888 81.74592 1.46944 21.7856 0.88576 39.41888-16.3328 39.41888-36.88448V92.16a35.84 35.84 0 1 1 71.68 0V578.52928c0 62.53056-52.78208 110.99648-114.01216 108.50816-26.38848-1.0752-54.72768-1.80736-77.6192-1.42336-11.52 0.19456-20.97152 0.6656-27.82208 1.39776a86.5024 86.5024 0 0 0-5.05856 0.6656c-1.47968 1.26976-4.48512 4.03968-9.18016 9.33888-6.46656 7.296-13.85472 16.70144-22.35392 27.78112-1.87904 2.44224-3.80928 4.97664-5.79584 7.5776-15.06816 19.7376-33.03424 43.264-50.73408 60.96896-7.5008 7.5008-16.66048 10.4704-19.84 11.48928-4.77184 1.52576-9.91744 2.6368-14.76608 3.49696-9.81504 1.7408-21.9392 3.0464-35.00032 4.0448-26.32704 2.01216-59.53024 2.98496-92.35968 2.98496-32.82944 0-66.08384-0.9728-92.5184-2.98496-13.11232-0.9984-25.2928-2.304-35.15904-4.03456-4.88448-0.85504-10.02496-1.95584-14.78144-3.45088-3.3024-1.03424-12.07296-3.87072-19.44576-10.83392-20.6848-19.5328-41.82016-42.38848-59.81184-61.83936l-8.71936-9.4208c-10.10688-10.87488-18.70848-19.968-25.73312-26.76224a140.5952 140.5952 0 0 0-7.80288-7.08096c-0.9984-0.10752-2.2016-0.22528-3.64032-0.33792-6.10816-0.47616-14.4384-0.78848-24.50944-0.93184-20.02944-0.28672-44.9536 0.11264-68.59776 0.7424C87.15776 690.05312 35.84 641.72032 35.84 580.15744V66.56c0-59.38176 48.13824-107.52 107.52-107.52h665.6a35.84 35.84 0 1 1 0 71.68H143.36a35.84 35.84 0 0 0-35.84 35.84V580.1472c0 20.31616 17.12128 37.19168 38.3488 36.62848 23.9616-0.64 50.03264-1.0752 71.53152-0.768 10.7008 0.1536 20.76672 0.49664 29.0816 1.14688a149.83168 149.83168 0 0 1 12.20096 1.39264c3.0976 0.50688 8.92928 1.56672 14.67904 4.1728 10.97728 4.97664 21.57056 14.7968 28.78976 21.78048 8.576 8.2944 18.37056 18.688 28.42624 29.5168 3.00544 3.23072 6.04672 6.51776 9.12384 9.84576C356.25472 701.7472 373.76 720.67072 390.97344 737.32096z m-143.07328-47.88224z m508.34432-1.28z m-127.488 48.4096c0.71168-0.22528 0.53248-0.24064-0.23552 0.07168l0.23552-0.07168z m-232.96 5.36576l0.01024 0.01024L371.2 768M583.6544 192.12288h-138.4448A37.09952 37.09952 0 0 0 409.6 229.18144 37.08928 37.08928 0 0 0 445.2096 266.24h138.4448a37.09952 37.09952 0 0 0 35.6096-37.05856 37.09952 37.09952 0 0 0-35.6096-37.05856z"  horiz-adv-x="1024" />
      
      <glyph glyph-name="huiyuan" unicode="&#58941;" d="M583.6544 79.48288h-138.4448A37.09952 37.09952 0 0 0 409.6 116.54144 37.08928 37.08928 0 0 0 445.2096 153.6h138.4448a37.09952 37.09952 0 0 0 35.6096-37.05856 37.09952 37.09952 0 0 0-35.6096-37.05856zM568.2688 746.32192c-15.5648 35.33312-65.0752 37.00736-82.99008 2.80576l-85.8112-163.82464C359.1936 508.416 252.41088 500.03456 200.63744 569.69728L114.82112 685.1584c-9.45664 12.7232-29.64992 4.52096-27.55584-11.19232l87.26016-654.45376A46.08 46.08 0 0 1 220.20096-20.48H773.12a35.84 35.84 0 1 0 0-71.68H220.20096c-59.01824 0-108.92288 43.69408-116.72576 102.1952L16.21504 664.49408C4.34176 753.54112 118.7584 800.02048 172.34944 727.92064L258.16576 612.4544c20.25984-27.25888 62.04416-23.97696 77.80352 6.10816l85.8112 163.82464c45.78304 87.40352 172.3136 83.1232 212.08576-7.168L696.8064 632.32c14.3872-32.6656 58.84928-37.2736 79.63136-8.25344l77.27616 107.88864c51.74784 72.25856 165.77024 29.6192 157.4144-58.86464l-55.9104-591.98464a35.84 35.84 0 1 0-71.36256 6.73792l55.9104 591.98976c1.47456 15.616-18.64704 23.1424-27.776 10.38848L834.7136 582.33344c-53.11488-74.15808-166.73792-62.37696-203.50464 21.09952L568.2688 746.32192z"  horiz-adv-x="1024" />
      
      <glyph glyph-name="hongbao1" unicode="&#58942;" d="M880.64 468.48a35.84 35.84 0 0 0 35.84-35.84v-384a35.84 35.84 0 1 0-71.68 0v384a35.84 35.84 0 0 0 35.84 35.84z m-737.28-66.56a35.84 35.84 0 0 0 35.84-35.84V5.12a46.08 46.08 0 0 1 46.08-46.08h501.76a35.84 35.84 0 1 0 0-71.68H225.28c-65.03936 0-117.76 52.72064-117.76 117.76v360.96a35.84 35.84 0 0 0 35.84 35.84zM107.52 762.88C107.52 827.91936 160.24064 880.64 225.28 880.64h573.44c65.03936 0 117.76-52.72064 117.76-117.76v-393.28768c0-45.54752-26.4192-88.064-70.03648-105.96352C773.98528 233.89696 626.25792 179.2 512 179.2c-114.25792 0-261.9904 54.69696-334.4384 84.4288-43.6224 17.89952-70.0416 60.416-70.0416 105.96352V762.88z m117.76 46.08a46.08 46.08 0 0 1-46.08-46.08v-393.28768c0-18.08896 10.3168-33.38752 25.56928-39.64928C278.08768 299.85792 413.6448 250.88 512 250.88s233.91744 48.97792 307.23072 79.06304c15.25248 6.26176 25.56928 21.56032 25.56928 39.64928V762.88a46.08 46.08 0 0 1-46.08 46.08H225.28zM583.6544 345.72288h-138.4448A37.09952 37.09952 0 0 0 409.6 382.78144 37.08928 37.08928 0 0 0 445.2096 419.84h138.4448a37.08416 37.08416 0 0 0 0-74.11712z"  horiz-adv-x="1024" />
      
      <glyph glyph-name="yinhangka" unicode="&#58943;" d="M819.1744 38.52288h-138.4448a37.08928 37.08928 0 0 0 0 74.11712h138.4448a37.09952 37.09952 0 0 0 35.6096-37.05856 37.09952 37.09952 0 0 0-35.6096-37.05856zM35.84 768C35.84 827.38176 83.97824 875.52 143.36 875.52h732.16c59.38176 0 107.52-48.13824 107.52-107.52v-74.24a35.84 35.84 0 1 0-71.68 0V768a35.84 35.84 0 0 1-35.84 35.84H143.36a35.84 35.84 0 0 1-35.84-35.84v-225.28a35.84 35.84 0 1 0-71.68 0V768zM35.84 35.84c0-76.34944 61.89056-138.24 138.24-138.24h670.72c76.34944 0 138.24 61.89056 138.24 138.24V512c0 36.7616-29.7984 66.56-66.56 66.56H102.4c-36.7616 0-66.56-29.7984-66.56-66.56v-476.16z m138.24-66.56c-36.7616 0-66.56 29.7984-66.56 66.56V506.88h803.84v-471.04c0-36.7616-29.7984-66.56-66.56-66.56H174.08z"  horiz-adv-x="1024" />
      
      <glyph glyph-name="wenjianjia" unicode="&#58944;" d="M583.6544 110.20288h-138.4448A37.09952 37.09952 0 0 0 409.6 147.26144 37.08928 37.08928 0 0 0 445.2096 184.32h138.4448a37.09952 37.09952 0 0 0 35.6096-37.05856 37.09952 37.09952 0 0 0-35.6096-37.05856zM168.96 788.48c-36.7616 0-66.56-29.7984-66.56-66.56v-670.72c0-36.7616 29.7984-66.56 66.56-66.56h626.8928a35.84 35.84 0 1 0 0-71.68H168.96c-76.34944 0-138.24 61.89056-138.24 138.24V721.92C30.72 798.26944 92.61056 860.16 168.96 860.16h147.76832a138.24 138.24 0 0 0 104.6016-47.86176L508.57984 711.3216a66.56 66.56 0 0 1 50.36544-23.04H849.92c76.34944 0 138.24-61.89568 138.24-138.24v-455.3216a35.84 35.84 0 1 0-71.68 0V550.0416c0 36.7616-29.7984 66.56-66.56 66.56h-290.97472a138.24 138.24 0 0 0-104.6016 47.85664L367.09376 765.44A66.56 66.56 0 0 1 316.72832 788.48H168.96z"  horiz-adv-x="1024" />
      
      <glyph glyph-name="dizhi" unicode="&#58945;" d="M568.2944 505.24672h-138.4448a37.08416 37.08416 0 0 0 0 74.11712h138.4448a37.08416 37.08416 0 0 0 0-74.11712zM497.01376 885.76C302.06976 885.76 144.2048 732.45184 143.36 541.67552c0-68.5056 20.36224-133.7344 58.15808-189.47072l3.69664-5.27872 2.1504-3.57376 1.76128-2.688c1.19296-1.74592 2.4576-3.41504 3.87584-5.06368l0.88064-0.96256L438.784 72.78592a76.65664 76.65664 0 0 1 116.44928 0.18944l223.6672 261.89312-1.47456-1.62816c2.20672 2.304 4.21376 4.79744 6.00064 7.44448l1.72544 2.65216c0.71168 1.11104 2.09408 3.45088 2.05312 3.37408 39.6544 55.4752 61.89568 123.07968 62.72 194.3296C849.92 732.02688 691.6352 885.76 497.01376 885.76z m0-76.77952c152.76544 0 276.20864-119.88992 276.20864-267.47904a264.94976 264.94976 0 0 0-49.41312-151.58272l-3.31776-5.25824-223.57504-261.81632-224.91648 261.85728-2.16576 3.584-1.11104 1.6384a259.1232 259.1232 0 0 0-48.6656 151.5776c0.67072 147.89632 123.79136 267.47904 276.95616 267.47904zM802.76992 158.59712a37.7856 37.7856 0 0 0 27.4432 4.33152 38.08256 38.08256 0 0 0 23.0656-15.62112l1.59744-2.53952L936.8064 3.072a77.45024 77.45024 0 0 0 10.37824-37.33504c0.24576-13.1328-2.8416-26.112-8.97536-37.70368a76.67712 76.67712 0 0 0-26.05056-28.4928 75.73504 75.73504 0 0 0-36.51072-12.04736l-5.08928-0.13312-743.56736 4.096a75.66336 75.66336 0 0 0-36.98176 9.90208 76.544 76.544 0 0 0-27.55584 26.79808 77.55776 77.55776 0 0 0-3.1744 74.70592l2.3808 4.43904 78.08 134.41024a38.1696 38.1696 0 0 0 22.53824 17.64864 37.80608 37.80608 0 0 0 28.35456-3.08736 38.4 38.4 0 0 0 18.29376-22.09792 38.80448 38.80448 0 0 0-2.02752-28.7232l-1.408-2.65216-78.08-134.40512 743.56736-4.096-81.93024 141.696a38.79424 38.79424 0 0 0-3.93216 29.16864 38.43584 38.43584 0 0 0 17.65376 23.43424z"  horiz-adv-x="1024" />
      
      <glyph glyph-name="yonghu" unicode="&#58946;" d="M35.84 179.2c0 132.89984 107.74016 240.64 240.64 240.64h465.92c132.89984 0 240.64-107.74016 240.64-240.64v-143.36a35.84 35.84 0 1 0-71.68 0v143.36c0 93.312-75.648 168.96-168.96 168.96H276.48c-93.312 0-168.96-75.648-168.96-168.96v-174.08a46.08 46.08 0 0 1 46.08-46.08h663.04a35.84 35.84 0 1 0 0-71.68H153.6c-65.03936 0-117.76 52.72064-117.76 117.76v174.08zM583.6544 28.28288h-138.4448A37.09952 37.09952 0 0 0 409.6 65.34144 37.08928 37.08928 0 0 0 445.2096 102.4h138.4448a37.09952 37.09952 0 0 0 35.6096-37.05856 37.09952 37.09952 0 0 0-35.6096-37.05856zM509.44 808.96C431.67744 808.96 368.64 745.92256 368.64 668.16S431.67744 527.36 509.44 527.36 650.24 590.39744 650.24 668.16 587.20256 808.96 509.44 808.96zM296.96 668.16C296.96 785.5104 392.0896 880.64 509.44 880.64S721.92 785.5104 721.92 668.16 626.7904 455.68 509.44 455.68 296.96 550.8096 296.96 668.16z"  horiz-adv-x="1024" />
      
      <glyph glyph-name="shoujihao" unicode="&#58947;" d="M122.88 762.88c0 59.38176 48.13824 107.52 107.52 107.52h568.32c59.38176 0 107.52-48.13824 107.52-107.52v-729.6a35.84 35.84 0 1 0-71.68 0V762.88a35.84 35.84 0 0 1-35.84 35.84H230.4a35.84 35.84 0 0 1-35.84-35.84v-727.04c0-36.7616 29.7984-66.56 66.56-66.56h496.64a35.84 35.84 0 1 0 0-71.68H261.12c-76.34944 0-138.24 61.89056-138.24 138.24V762.88zM583.6544 64.12288h-138.4448A37.09952 37.09952 0 0 0 409.6 101.18144 37.08928 37.08928 0 0 0 445.2096 138.24h138.4448a37.09952 37.09952 0 0 0 35.6096-37.05856 37.09952 37.09952 0 0 0-35.6096-37.05856z"  horiz-adv-x="1024" />
      
      <glyph glyph-name="jifen" unicode="&#58948;" d="M518.46144-97.14176c-25.42592-0.00512-50.56 5.888-73.7024 17.28-23.14752 11.392-43.776 28.02688-60.48768 48.77824L67.1744 362.51136c-21.8112 26.94144-34.59072 61.07136-36.25984 96.86016-1.67424 35.7888 7.86432 71.1424 27.0592 100.33152L200.4992 777.48736c13.62944 20.7872 31.65184 37.73952 52.56192 49.44896C273.9712 838.64576 297.1648 844.7744 320.70656 844.8h400.45056c24.1664 0.01024 47.95904-6.42048 69.28384-18.72896 21.3248-12.30848 39.5264-30.11584 52.992-51.84512l135.13216-217.92256c17.93024-29.0304 26.60352-63.61088 24.69376-98.47808-1.90976-34.86208-14.29504-68.096-35.27168-94.6176l-133.32992-189.73696a35.3024 35.3024 0 0 0-10.4192-9.2672 32.64512 32.64512 0 0 0-12.89728-4.23936 32.08192 32.08192 0 0 0-13.4144 1.42848 33.87904 33.87904 0 0 0-11.88864 6.88128 37.0176 37.0176 0 0 0-8.55552 11.28448 39.84384 39.84384 0 0 0-3.91168 13.97248 40.3968 40.3968 0 0 0 1.31584 14.53056 38.58432 38.58432 0 0 0 6.35392 12.8768l133.32992 190.11072 0.55808 0.74752c11.16672 14.04928 17.78176 31.67744 18.83136 50.18624 1.0496 18.50368-3.52768 36.87424-13.02528 52.3008l-135.13216 217.92256c-7.168 11.49952-16.83456 20.9152-28.15488 27.41248a73.33888 73.33888 0 0 1-36.74624 9.856H320.66048a73.6768 73.6768 0 0 1-35.90144-9.472c-11.10016-6.20544-20.66944-15.19104-27.91936-26.2144l-142.53056-217.5488c-10.1888-15.49824-15.24224-34.26304-14.35648-53.26336 0.89088-18.9952 7.68-37.10976 19.25632-51.40992l317.06112-393.41056c10.22976-12.70272 22.8608-22.88128 37.02784-29.85984a101.96992 101.96992 0 0 1 45.11744-10.5728h0.21504a101.95968 101.95968 0 0 1 45.2096 10.7264c14.18752 7.04 26.81344 17.29536 37.02272 30.08l71.6544 87.76704a34.98496 34.98496 0 0 0 10.63424 8.96512 32.10752 32.10752 0 0 0 26.37312 2.06848 34.00192 34.00192 0 0 0 11.71968-7.21408 37.1712 37.1712 0 0 0 8.27904-11.52512 39.8848 39.8848 0 0 0 3.57888-14.07488 40.36096 40.36096 0 0 0-1.66912-14.4896 38.28736 38.28736 0 0 0-6.66112-12.69248l-71.6544-87.99744c-16.6912-20.85888-37.31456-37.59616-60.48768-49.08544-23.168-11.4944-48.34304-17.46944-73.82528-17.53088h-0.34304v0.13824zM588.7744 412.28288h-138.4448a37.08416 37.08416 0 0 0 0 74.11712h138.4448a37.08416 37.08416 0 0 0 0-74.11712z"  horiz-adv-x="1024" />
      
      <glyph glyph-name="tongji" unicode="&#58949;" d="M588.7744 132.70016h-138.4448a37.07904 37.07904 0 0 0 0 74.112h138.4448a37.08928 37.08928 0 0 0 0-74.112zM475.72992 846.80192a35.84 35.84 0 0 0-29.88032-40.93952C242.57536 774.11328 87.04 598.1952 87.04 386.01216c0-234.69568 190.2592-424.96 424.96-424.96 214.64064 0 392.1664 159.16544 420.89472 365.89568a35.84 35.84 0 1 0 70.99392-9.86624c-33.57696-241.67424-240.97792-427.70944-491.88864-427.70944-274.28864 0-496.64 222.35648-496.64 496.64C15.36 634.0608 197.16096 839.56736 434.7904 876.68224a35.84 35.84 0 0 0 40.93952-29.88032zM517.2736 848.12288a35.84 35.84 0 0 0 39.00928 32.3584C790.9376 858.624 978.3808 674.46784 1005.31712 441.32864a35.84 35.84 0 0 0-36.70016-39.94112c-0.3072-0.01024-0.62464-0.01024-0.93696-0.01024h-414.72a35.84 35.84 0 0 0-35.74784 38.4 35.31776 35.31776 0 0 0-0.09216 2.56v394.24c0 1.3824 0.0768 2.74944 0.2304 4.096a36.18816 36.18816 0 0 0-0.0768 7.4496z m71.5264-44.4928v-330.57792h338.75968c-35.72736 167.58784-169.728 298.8544-338.75968 330.57792z"  horiz-adv-x="1024" />
      
      <glyph glyph-name="shezhi" unicode="&#58950;" d="M452.34176 848.29696a117.76 117.76 0 0 0 124.43648 0l288.32256-179.42528a117.75488 117.75488 0 0 0 55.54176-99.97824v-369.78688a117.74464 117.74464 0 0 0-55.54176-99.97824l-21.84704-13.5936a35.84 35.84 0 1 0-37.86752 60.85632l21.84192 13.5936a46.08 46.08 0 0 1 21.7344 39.12192V568.89344a46.08 46.08 0 0 1-21.7344 39.12192l-288.32256 179.42016a46.08 46.08 0 0 1-48.6912 0L201.89184 608.01536a46.08 46.08 0 0 1-21.7344-39.12192v-369.78688a46.08 46.08 0 0 1 21.7344-39.12192l288.32256-179.42016a46.06976 46.06976 0 0 1 48.6912 0l84.72064 52.72064a35.84 35.84 0 0 0 37.87264-60.86144l-84.72064-52.72064a117.77536 117.77536 0 0 0-124.43648 0l-288.32256 179.42528a117.75488 117.75488 0 0 0-55.54176 99.97824V568.89344a117.76 117.76 0 0 0 55.54176 99.97824L452.34176 848.29696zM583.6544 345.72288h-138.4448A37.09952 37.09952 0 0 0 409.6 382.78144 37.08928 37.08928 0 0 0 445.2096 419.84h138.4448a37.08416 37.08416 0 0 0 0-74.11712z"  horiz-adv-x="1024" />
      
      <glyph glyph-name="xiaoxi" unicode="&#58951;" d="M46.08 680.96C46.08 785.58208 130.89792 870.4 235.52 870.4h547.84c104.6272 0 189.44-84.81792 189.44-189.44v-399.36c0-104.6272-84.8128-189.44-189.44-189.44h-178.24256a158.72 158.72 0 0 1-109.39392-43.71968l-153.57952-146.08896a35.84 35.84 0 0 0-49.408 51.93728l153.58464 146.08896A230.40512 230.40512 0 0 0 605.11744 163.84H783.36c65.03936 0 117.76 52.72064 117.76 117.76V680.96c0 65.03936-52.72064 117.76-117.76 117.76H235.52c-65.03936 0-117.76-52.72064-117.76-117.76v-399.36c0-65.03936 52.72064-117.76 117.76-117.76h60.16a35.84 35.84 0 1 0 0-71.68H235.52c-104.62208 0-189.44 84.8128-189.44 189.44V680.96zM583.6544 396.92288h-138.4448a37.08416 37.08416 0 0 0 0 74.11712h138.4448a37.08416 37.08416 0 0 0 0-74.11712z"  horiz-adv-x="1024" />
      
      <glyph glyph-name="shoucang" unicode="&#58952;" d="M425.90208 808.89856c37.13536 68.352 135.06048 68.352 172.19584 0l103.24992-190.04416a21.79584 21.79584 0 0 1 15.11936-11.01824l212.12672-39.87456c76.21632-14.32576 106.4448-107.4688 53.21728-163.98848l-148.3776-157.53728a21.84192 21.84192 0 0 1-5.76512-17.78688l7.74144-59.86304c2.70336-20.92544-12.032-40.08448-32.91136-42.79296-20.87936-2.7136-40.00256 12.05248-42.70592 32.97792l-7.73632 59.86304a98.37568 98.37568 0 0 0 25.92768 80.0512l148.3776 157.53728c11.8272 12.55936 5.10976 33.2544-11.8272 36.43904l-212.12672 39.87456a98.03776 98.03776 0 0 0-68.0192 49.58208l-103.25504 190.04416c-8.25344 15.18592-30.01344 15.18592-38.26688 0L389.61664 582.31808A98.048 98.048 0 0 0 321.5872 532.736L109.4656 492.86144c-16.93696-3.18464-23.6544-23.87968-11.8272-36.43904l148.3776-157.53728a98.37056 98.37056 0 0 0 25.92768-80.0512l-27.776-214.89664c-2.21696-17.14176 15.38048-29.94176 30.95552-22.52288l194.78016 92.81536a97.87392 97.87392 0 0 0 84.19328 0l194.78016-92.81536c15.57504-7.41888 33.17248 5.38112 30.95552 22.52288l-0.33792 2.6368c-2.70336 20.92544 12.02688 40.08448 32.90624 42.79808 20.88448 2.70848 40.00256-12.0576 42.70592-32.98304l0.34304-2.6368c9.96864-77.13792-69.21728-134.74304-139.3152-101.34016l-194.78016 92.81024a21.7344 21.7344 0 0 1-18.70848 0L307.8656-87.58784c-70.0928-33.40288-149.28384 24.20224-139.3152 101.34016l27.78112 214.89664a21.85216 21.85216 0 0 1-5.76 17.78688L42.1888 403.97824C-11.04384 460.48256 19.18464 553.63072 95.40096 567.9616l212.12672 39.87456a21.79072 21.79072 0 0 1 15.11936 11.01824l103.24992 190.04416zM583.6544 202.36288h-138.4448A37.09952 37.09952 0 0 0 409.6 239.42144 37.08928 37.08928 0 0 0 445.2096 276.48h138.4448a37.09952 37.09952 0 0 0 35.6096-37.05856 37.09952 37.09952 0 0 0-35.6096-37.05856z"  horiz-adv-x="1024" />
      
      <glyph glyph-name="shangcheng" unicode="&#58953;" d="M535.72608 866.64192c11.35104-16.22016 8.1152-39.5008-7.22944-52.00384L68.8896 440.07936c-15.34464-12.50304-36.98688-9.4976-48.3328 6.72256-11.35616 16.21504-8.12032 39.49568 7.22432 51.99872L487.38816 873.35936c15.34464 12.50304 36.98688 9.4976 48.33792-6.71744zM483.6608 866.64192c-11.35616-16.22016-8.1152-39.5008 7.22432-52.00384l459.61216-374.55872c15.33952-12.50304 36.98176-9.4976 48.3328 6.72256 11.35104 16.21504 8.1152 39.49568-7.22432 51.99872L531.9936 873.35936c-15.34464 12.50304-36.98176 9.4976-48.3328-6.71744zM583.6544 105.08288h-138.4448A37.09952 37.09952 0 0 0 409.6 142.14144 37.08928 37.08928 0 0 0 445.2096 179.2h138.4448a37.09952 37.09952 0 0 0 35.6096-37.05856 37.09952 37.09952 0 0 0-35.6096-37.05856zM158.72 517.12v-496.64c0-31.104 25.216-56.32 56.32-56.32h545.28v-0.09216a35.84 35.84 0 0 0 0-71.49568V-107.52H215.04c-70.69184 0-128 57.30816-128 128V517.12h71.68z m706.56-471.04V517.12h71.68v-473.6h-0.09216a35.84 35.84 0 0 0-71.49568 0H865.28v2.56z"  horiz-adv-x="1024" />
      
      <glyph glyph-name="shenpi" unicode="&#58954;" d="M577.31584 26.1632H435.31776a37.85728 37.85728 0 0 0-25.9072 11.77088 38.64576 38.64576 0 0 0-10.61376 26.62912c0 9.92768 3.80416 19.47136 10.61376 26.62912a37.85728 37.85728 0 0 0 25.9072 11.77088h141.99808a37.86752 37.86752 0 0 0 25.91232-11.77088 38.656 38.656 0 0 0 10.60864-26.62912 38.656 38.656 0 0 0-10.60864-26.62912 37.86752 37.86752 0 0 0-25.91232-11.77088zM315.53536 623.93856C315.53536 726.09792 398.41792 808.96 500.71552 808.96c102.29248 0 185.17504-82.86208 185.17504-185.02144 0-62.42816-30.91968-117.67296-78.45376-151.22944a35.54816 35.54816 0 0 1-2.46272-1.58208l-0.80384-0.5632-1.43872-0.9984-1.53088-1.07008-0.28672-0.18944c-0.89088-0.56832-1.74592-1.1776-2.56512-1.80736-11.83744-8.33536-27.26912-19.68128-40.19712-33.792-16.11264-17.57184-30.8736-42.07104-30.8736-74.14784 0-18.05824 3.68128-35.26144 12.3392-50.57024 8.71424-15.41632 21.23776-26.7264 35.48672-34.78016 25.23136-14.2592 57.2672-19.06688 89.42592-20.43904v-0.256h178.18112c28.27264 0 51.2-22.92224 51.2-51.2v-192.56832a36.4032 36.4032 0 0 1 35.84-42.81344 36.4032 36.4032 0 0 1 35.84 42.81344v192.56832c0 67.8656-55.01952 122.88-122.88 122.88h-169.86112c-31.9232 0.95232-51.57888 5.25824-62.46912 11.4176-4.72576 2.66752-7.0144 5.25824-8.36608 7.6544-1.41312 2.49856-3.05664 7.00416-3.05664 15.29344 0 8.34048 3.44064 16.34304 12.032 25.71776 8.17152 8.9088 18.63168 16.56832 30.55104 24.94976 69.80608 45.81376 116.02944 124.8512 116.02944 214.71232C757.57056 765.73696 642.54976 880.64 500.71552 880.64S243.85536 765.73696 243.85536 623.93856c0-88.02816 44.36992-165.6832 111.7952-211.87072 0.67072-0.4608 1.3568-0.896 2.048-1.3056 12.83072-8.99072 24.07424-17.02912 32.73728-26.48576 8.59136-9.37472 12.032-17.37728 12.032-25.71776 0-8.28928-1.6384-12.79488-3.05152-15.29344-1.3568-2.39616-3.64032-4.98688-8.36608-7.6544-10.89024-6.15936-30.54592-10.46528-62.46912-11.4176H158.72c-67.8656 0-122.88-55.0144-122.88-122.88v-189.94688c0-67.8656 55.0144-122.88 122.88-122.88h624.2048a36.4032 36.4032 0 0 1 42.81344 35.84 36.4032 36.4032 0 0 1-42.81344 35.84H158.72c-28.27776 0-51.2 22.92224-51.2 51.2v189.94688c0 28.27776 22.92224 51.2 51.2 51.2h170.2144c0.39424 0 0.7936 0.00512 1.18784 0.01536 34.40128 0.98304 69.1968 5.41696 96.2048 20.67968 14.24896 8.05376 26.77248 19.36384 35.4816 34.78016 8.65792 15.3088 12.3392 32.512 12.3392 50.57024 0 32.0768-14.76096 56.576-30.8736 74.15296-14.592 15.9232-32.36864 28.33408-44.57984 36.85376l-0.09216 0.06144-0.55296 0.38912-1.5872 1.11104a36.13696 36.13696 0 0 1-2.46784 1.58208c-47.5392 33.5616-78.45888 88.79616-78.45888 151.22944z"  horiz-adv-x="1024" />
      
      <glyph glyph-name="lipin1" unicode="&#58955;" d="M146.92864 592.19968C156.30336 660.6592 214.784 711.68 283.88864 711.68h461.34272c69.09952 0 127.58016-51.0208 136.96-119.48032l69.23776-505.41568a35.84 35.84 0 0 0-71.01952-9.728l-69.23264 505.41568A66.56 66.56 0 0 1 745.23136 640H283.88864a66.56 66.56 0 0 1-65.9456-57.52832l-74.3424-542.72C138.12224-0.22528 169.1904-35.84 209.54624-35.84H747.52a35.84 35.84 0 1 0 0-71.68H209.54624c-83.80928 0-148.33664 73.97376-136.96 156.99968l74.3424 542.72zM583.6544 227.96288h-138.4448A37.09952 37.09952 0 0 0 409.6 265.02144 37.08928 37.08928 0 0 0 445.2096 302.08h138.4448a37.09952 37.09952 0 0 0 35.6096-37.05856 37.09952 37.09952 0 0 0-35.6096-37.05856zM322.56 689.33632C322.56 792.1664 405.08416 875.52 506.88 875.52h14.53056c80.18944-2.56 127.54944-34.83136 162.10944-115.2 5.0688-11.79136-8.19712-28.16-23.04-28.16s-25.61536 7.68-32 19.47136C601.6 801.28 573.44 816.64 521.41056 821.21216H506.88c-72.10496 0-130.56-59.03872-130.56-131.87584v8.53504c0-14.99648-12.032-11.79136-26.88-11.79136S322.56 682.87488 322.56 697.87136v-8.53504z"  horiz-adv-x="1024" />
      
      <glyph glyph-name="baobiao" unicode="&#59093;" d="M702.3616 787.3024H320a220.8768 220.8768 0 0 1-220.6208-220.672V184.32a220.8768 220.8768 0 0 1 220.6208-220.6208h382.3616A220.8768 220.8768 0 0 1 922.9824 184.32V566.6304a220.8768 220.8768 0 0 1-220.6208 220.672zM882.0224 184.32a179.8656 179.8656 0 0 0-179.6608-179.6608H320A179.8656 179.8656 0 0 0 140.3392 184.32V566.6304a179.8656 179.8656 0 0 0 179.6608 179.712h382.3616a179.8656 179.8656 0 0 0 179.6608-179.712zM741.12 523.8784l-151.808-3.2768a20.48 20.48 0 0 1 0.8704-40.96l101.2736 2.2016-182.4256-180.8896a5.632 5.632 0 0 0-4.4544-1.792 6.2976 6.2976 0 0 0-4.352 1.9456L424.96 381.2864a47.1552 47.1552 0 0 1-67.072 1.5872l-117.76-114.0736a20.48 20.48 0 1 1 28.4672-29.44L386.304 353.28a6.5024 6.5024 0 0 0 4.4032 1.7408 6.2976 6.2976 0 0 0 4.352-1.9456l75.3152-80.1792a47.1552 47.1552 0 0 1 67.4816-1.1776l183.1936 181.6576v-93.952a20.48 20.48 0 0 1 40.96 0V503.3984a20.48 20.48 0 0 1-6.144 14.6432 20.48 20.48 0 0 1-14.7456 5.8368z"  horiz-adv-x="1024" />
      
      <glyph glyph-name="cunchu" unicode="&#59094;" d="M513.4336 612.6592H276.48a20.48 20.48 0 0 1 0-40.96h236.8a20.48 20.48 0 0 1 0 40.96zM884.0192 548.4032L678.1952 757.76a104.8064 104.8064 0 0 1-74.3424 31.1808H254.6176a134.2976 134.2976 0 0 1-134.144-134.144v-542.72a134.2464 134.2464 0 0 1 134.144-134.0928H779.776a134.2464 134.2464 0 0 1 134.0928 134.0928V475.392a103.68 103.68 0 0 1-29.8496 73.0112z m-149.0432-529.408h-436.736V174.08a12.1344 12.1344 0 0 0 12.1344 12.0832h412.4672a12.1344 12.1344 0 0 0 12.1344-12.0832z m137.9328 93.1328a93.2352 93.2352 0 0 0-93.1328-93.1328h-3.84V174.08a53.1456 53.1456 0 0 1-53.0944 53.0432H310.3744A53.1456 53.1456 0 0 1 257.28 174.08v-154.9824h-2.6624a93.2352 93.2352 0 0 0-93.184 93.1328v542.72a93.2352 93.2352 0 0 0 93.184 93.184h349.2352a63.7952 63.7952 0 0 0 45.1072-18.8928L855.04 519.68a62.9248 62.9248 0 0 0 18.1248-44.288z"  horiz-adv-x="1024" />
      
      <glyph glyph-name="daishenhe" unicode="&#59095;" d="M310.784 543.1296h304.1792a20.48 20.48 0 0 1 0 40.96H310.784a20.48 20.48 0 0 1 0-40.96zM418.2016 353.28H303.9744a20.48 20.48 0 1 1 0-40.96h114.2272a20.48 20.48 0 0 1 0 40.96zM798.2592 431.2064V641.8432a149.4016 149.4016 0 0 1-149.1968 149.1968H272.128A149.4016 149.4016 0 0 1 122.88 641.8432V138.24a149.3504 149.3504 0 0 1 149.1968-149.1968h376.9344a147.4048 147.4048 0 0 1 36.352 4.608 227.328 227.328 0 0 1 112.64 437.5552zM272.128 30.0032A108.3392 108.3392 0 0 0 163.84 138.24V641.8432A108.3904 108.3904 0 0 0 272.128 750.08h376.9344a108.3904 108.3904 0 0 0 108.2368-108.2368v-199.168l-2.9184 0.4608-4.6592 0.7168c-2.048 0.3072-4.1472 0.5632-6.1952 0.768l-4.5568 0.512L732.16 445.44h-3.84q-5.4784 0.3072-10.9056 0.3072a227.6864 227.6864 0 0 1-227.4304-227.4304c0-4.4032 0-8.8064 0.4096-13.1584 0-1.6896 0-3.3792 0.4096-5.12 0-2.5088 0.4096-5.12 0.7168-7.5776s0.512-4.4544 0.8192-6.656l0.768-5.12a226.048 226.048 0 0 1 96.9728-151.3984z m445.1328 2.304a187.0336 187.0336 0 0 0-32.768 2.9696c-1.6896 0.3072-3.4304 0.5632-5.12 0.9216a187.0336 187.0336 0 0 0-146.3808 154.0096v0.3584c-0.4096 2.6624-0.7168 5.376-1.024 8.0896v1.536c0 2.4576-0.4096 5.12-0.512 7.3728v1.9968 9.216a186.6752 186.6752 0 0 0 186.4704 186.4704c4.1472 0 8.2432 0 12.3904-0.4608h3.1232q5.5808-0.4608 11.0592-1.2288h1.3312c3.9936-0.6144 7.9872-1.3824 11.9296-2.2528l3.1232-0.7168q5.12-1.1264 9.8304-2.6112a186.4192 186.4192 0 0 0-52.7872-365.2608zM817.3568 222.8224H727.04v88.064a20.48 20.48 0 0 1-40.96 0v-108.544a20.48 20.48 0 0 1 20.48-20.48h110.7968a20.48 20.48 0 0 1 0 40.96z"  horiz-adv-x="1024" />
      
      <glyph glyph-name="faxian" unicode="&#59096;" d="M516.608 815.6672a427.5712 427.5712 0 1 1 427.5712-427.5712 428.0832 428.0832 0 0 1-427.5712 427.5712z m0-814.08a386.6112 386.6112 0 1 0 386.6112 386.5088 387.0208 387.0208 0 0 0-386.6112-386.6112zM654.2336 567.0912L455.68 468.5312a28.3648 28.3648 0 0 1-13.7216-14.6432l-90.2656-220.5184a28.3136 28.3136 0 0 1 40.96-35.0208l202.7008 121.6a28.4672 28.4672 0 0 1 11.3664 12.9536l86.2208 197.4272a28.3648 28.3648 0 0 1-38.5536 36.7616z m-83.6096-214.0672L403.968 252.9792l73.8816 180.992 163.5328 80.9984z"  horiz-adv-x="1024" />
      
      <glyph glyph-name="dianpu" unicode="&#59097;" d="M930.56 520.1408l-76.4928 188.8256a113.7664 113.7664 0 0 1-105.7792 71.2704H276.8896A113.7664 113.7664 0 0 1 171.52 709.888L93.0816 521.0624a150.8864 150.8864 0 0 1 30.72-164.864 169.9328 169.9328 0 0 1 23.9104-19.968V128a141.6704 141.6704 0 0 1 141.5168-141.5168h444.3648A141.6704 141.6704 0 0 1 875.52 128v208.384a171.4688 171.4688 0 0 1 23.9616 20.1216 151.4496 151.4496 0 0 1 31.0784 163.6352zM130.9184 505.344l78.3872 188.8256a73.0624 73.0624 0 0 0 67.584 45.1072h471.3984a72.8576 72.8576 0 0 0 67.84-45.7216l76.4928-188.8256a110.4384 110.4384 0 0 0-22.528-119.3984 126.6176 126.6176 0 0 0-205.5168 36.864 20.48 20.48 0 0 1-37.3248 0 126.6176 126.6176 0 0 0-231.168 0.7168 20.48 20.48 0 0 1-37.4272 0 126.6176 126.6176 0 0 0-205.6192-37.8368 109.9776 109.9776 0 0 0-22.1184 120.2688zM834.56 128a100.6592 100.6592 0 0 0-100.5568-100.5568H289.3824A100.6592 100.6592 0 0 0 188.8256 128v187.5968A167.7824 167.7824 0 0 1 377.344 374.272a167.5776 167.5776 0 0 1 268.544-0.512A167.7312 167.7312 0 0 1 834.56 315.6992zM306.6368 523.2128h409.856a20.48 20.48 0 0 1 0 40.96h-409.6a20.48 20.48 0 1 1 0-40.96z"  horiz-adv-x="1024" />
      
      <glyph glyph-name="gaishuai" unicode="&#59098;" d="M810.6496 680.704a414.3104 414.3104 0 0 1-291.84 123.5968H514.048a417.1776 417.1776 0 1 1 296.3968-123.7504z m-15.36-543.1296l-232.6528 229.376h327.1168a373.1968 373.1968 0 0 0-94.5152-229.376z m94.464 270.336h-350.5152V762.5728a377.5488 377.5488 0 0 0 350.464-354.6624zM138.24 387.4304A376.5248 376.5248 0 0 0 498.2784 762.88v-371.2512a20.48 20.48 0 0 1 8.8064-21.0432 20.48 20.48 0 0 1 5.8368-11.9808l253.3888-249.856A375.9616 375.9616 0 0 0 138.24 387.4304z"  horiz-adv-x="1024" />
      
      <glyph glyph-name="fenlei" unicode="&#59099;" d="M302.08 789.0944h-6.1952a194.0992 194.0992 0 0 1-193.8944-193.8432v-6.0928A194.0992 194.0992 0 0 1 295.8848 395.264h179.456a20.48 20.48 0 0 1 20.48 20.48V595.2512A194.048 194.048 0 0 1 302.08 789.0944zM454.8608 436.224H295.8848a153.088 153.088 0 0 0-152.9344 152.9344v6.0928a153.088 153.088 0 0 0 152.9344 152.8832H302.08a153.0368 153.0368 0 0 0 152.7808-152.8832zM475.3408 356.5056H295.8848a194.0992 194.0992 0 0 1-193.8944-193.8944v-6.0928a194.0992 194.0992 0 0 1 193.8944-193.8432H302.08a194.048 194.048 0 0 1 193.8432 193.8432v179.5072a20.48 20.48 0 0 1-20.5824 20.48z m-20.48-199.9872A153.0368 153.0368 0 0 0 302.08 3.6352h-6.1952a153.088 153.088 0 0 0-152.9344 152.8832v6.0928a153.088 153.088 0 0 0 152.9344 152.9344h158.976zM727.04 789.0944h-6.0928a194.048 194.048 0 0 1-193.8432-193.8432V415.744a20.48 20.48 0 0 1 20.48-20.48h179.2a194.0992 194.0992 0 0 1 193.8944 193.8944v6.0928A194.0992 194.0992 0 0 1 727.04 789.0944z m152.9344-199.936A153.088 153.088 0 0 0 727.04 436.224h-158.72V595.2512a153.0368 153.0368 0 0 0 152.8832 152.8832H727.04a153.088 153.088 0 0 0 152.9344-152.8832zM727.04 356.5056h-179.2a20.48 20.48 0 0 1-20.48-20.48v-179.5072a194.048 194.048 0 0 1 193.8432-193.8432H727.04a194.0992 194.0992 0 0 1 193.8944 193.8432v6.0928A194.0992 194.0992 0 0 1 727.04 356.5056z m152.9344-199.9872A153.088 153.088 0 0 0 727.04 3.6352h-6.0928a153.0368 153.0368 0 0 0-152.8832 152.8832v159.0272h158.72a153.088 153.088 0 0 0 152.9344-152.9344z"  horiz-adv-x="1024" />
      
      <glyph glyph-name="gonglve" unicode="&#59100;" d="M719.104 800.2048H304.0768a164.3008 164.3008 0 0 1-163.84-164.096v-497.5616a164.3008 164.3008 0 0 1 163.84-164.1472h415.0272a164.3008 164.3008 0 0 1 164.096 164.096V636.1088a164.3008 164.3008 0 0 1-164.096 164.096z m-238.4896-40.96h194.2528v-225.024l-73.0112 48.7424a40.3968 40.3968 0 0 1-44.3392 0.3584l-76.8-49.7664zM180.9408 138.5472V636.1088a123.2896 123.2896 0 0 0 118.4768 122.88V15.36a123.2384 123.2384 0 0 0-118.4768 123.1872z m661.2992 0A123.2896 123.2896 0 0 0 719.104 15.36h-378.88V759.2448h99.4304V532.48A40.3456 40.3456 0 0 1 501.76 498.5344l77.5168 50.1248 73.6256-49.152a40.3968 40.3968 0 0 1 62.7712 33.5872V759.2448h3.2768a123.2896 123.2896 0 0 0 123.136-122.88z"  horiz-adv-x="1024" />
      
      <glyph glyph-name="gouwu" unicode="&#59101;" d="M918.0672 113.2032l-69.9904 419.84a122.88 122.88 0 0 1-121.3952 102.8096h-25.6a180.5824 180.5824 0 0 1-360.5504 0h-31.0272A122.88 122.88 0 0 1 188.416 534.6816l-75.4176-419.84a123.136 123.136 0 0 1 121.1392-144.7936H796.672a122.88 122.88 0 0 1 121.3952 143.36zM520.8064 765.1328a139.8272 139.8272 0 0 0 139.2128-129.1264H381.5936a139.8272 139.8272 0 0 0 139.2128 129.1264z m338.5344-725.248a81.92 81.92 0 0 0-62.6688-29.0304H234.1376A81.92 81.92 0 0 0 153.6 107.52l75.1104 419.84a81.92 81.92 0 0 0 80.7936 67.584h30.72v-87.04a20.48 20.48 0 0 1 40.96 0v87.04H660.48v-87.04a20.48 20.48 0 1 1 40.96 0v87.04h25.2928a81.92 81.92 0 0 0 80.9984-68.608l69.9904-419.84a81.92 81.92 0 0 0-18.3808-66.6112zM673.28 167.168H342.3232a20.48 20.48 0 1 1 0-40.96h330.9568a20.48 20.48 0 0 1 0 40.96z"  horiz-adv-x="1024" />
      
      <glyph glyph-name="guanli" unicode="&#59102;" d="M112.896 550.7072l360.4992-182.784a92.16 92.16 0 0 1 84.4288 0.4608l349.8496 182.4768a34.4064 34.4064 0 0 1 0 61.0304L558.08 794.368a92.5184 92.5184 0 0 1-84.4288 0.512l-360.7552-182.784a34.4064 34.4064 0 0 1 0-61.44z m378.88 207.616a51.456 51.456 0 0 0 46.9504-0.256l338.7392-176.6912L538.88 404.48a51.2 51.2 0 0 0-46.9504-0.3072L142.8992 581.376zM102.4 362.8544L474.3168 174.08a90.0608 90.0608 0 0 1 82.2272 0.512l360.7552 188.16a20.48 20.48 0 0 1-18.944 36.3008L537.6 211.0976a49.1008 49.1008 0 0 0-44.7488 0L120.9856 399.36a20.48 20.48 0 1 1-18.5856-36.5056zM898.3552 205.824L537.6 17.664a49.1008 49.1008 0 0 0-44.7488 0l-371.8656 188.2624a20.48 20.48 0 1 1-18.5856-36.5056l371.8656-188.5184a89.856 89.856 0 0 1 82.2272 0.4608l360.7552 188.16a20.48 20.48 0 0 1-18.944 36.3008z"  horiz-adv-x="1024" />
      
      <glyph glyph-name="lipin" unicode="&#59103;" d="M851.7632 615.8848H773.12l4.0448 4.096a97.28 97.28 0 0 1-5.12 141.0048 97.28 97.28 0 0 1-132.4032-3.9936L525.312 643.584 410.9824 756.992a97.28 97.28 0 0 1-132.4032 3.9936 97.28 97.28 0 0 1-5.12-141.0048l4.0448-4.096H186.2656a87.6032 87.6032 0 0 1-87.5008-87.4496v-74.0864a87.552 87.552 0 0 1 73.5232-86.2208v-264.2944a126.6176 126.6176 0 0 1 126.5152-126.5152h440.32a126.6688 126.6688 0 0 1 126.5152 126.5152V368.128a87.5008 87.5008 0 0 1 73.472 86.2208V528.4352a87.552 87.552 0 0 1-87.3472 87.4496z m-183.296 111.9744a56.32 56.32 0 0 0 95.5392-37.7856 55.6544 55.6544 0 0 0-16.0768-41.3696l-32.3072-32.8192H555.52zM302.6432 648.704a56.32 56.32 0 0 0 2.9696 81.5104 56.32 56.32 0 0 0 76.4928-2.304l112.9472-112.0256H334.9504z m522.24-544.8704a85.6576 85.6576 0 0 0-85.5552-85.5552h-440.32a85.6576 85.6576 0 0 0-85.5552 85.5552v263.0656h295.2704v-317.8496a20.48 20.48 0 0 1 40.96 0v317.8496h275.0976z m73.472 350.5152a46.5408 46.5408 0 0 0-46.4896-46.4896h-302.08V543.5904a20.48 20.48 0 0 1-40.96 0v-135.7312h-322.56a46.5408 46.5408 0 0 0-46.5408 46.4896V528.4352a46.5408 46.5408 0 0 0 46.5408 46.4896h665.6a46.5408 46.5408 0 0 0 46.4896-46.4896z"  horiz-adv-x="1024" />
      
      <glyph glyph-name="hongbao" unicode="&#59104;" d="M745.1648 800.7168H291.84a150.3232 150.3232 0 0 1-150.3744-150.1184v-536.7808A150.3232 150.3232 0 0 1 291.84-36.3008h453.5296a150.272 150.272 0 0 1 150.1184 150.1184V650.5984a150.272 150.272 0 0 1-150.3232 150.1184z m-5.9904-40.96c56.832 0 104.0896-39.2192 113.4592-90.5728 0.3072-1.8944 0.6656-3.84 0.8704-5.7856l0.3072-2.7136c0.3072-3.328 0.512-6.656 0.512-10.24v-65.3312a918.0672 918.0672 0 0 0-209.92-67.328c0 0.512-0.3072 1.024-0.4096 1.536-0.6144 2.5088-1.2288 5.12-1.9456 7.3728s-1.0752 3.4816-1.6896 5.12-0.9216 2.7648-1.4848 4.1472a131.3792 131.3792 0 0 1-71.68 74.8032l-0.9216 0.4096c-3.072 1.2288-6.144 2.4064-9.3184 3.4304l-4.1472 1.28c-1.3824 0.4096-2.7648 0.8704-4.1984 1.2288-2.6624 0.6656-5.4272 1.28-8.192 1.792l-3.072 0.5632c-3.0208 0.512-6.144 0.9216-9.2672 1.1776h-1.9456c-3.4816 0.3072-6.9632 0.4608-10.24 0.4608s-7.424 0-11.1104-0.512h-1.3824c-3.4816-0.3072-6.9632-0.8192-10.24-1.3824l-1.6384-0.3072c-3.4304-0.6656-6.7584-1.4336-10.24-2.304l-1.28-0.3584c-3.4304-0.9728-6.8096-2.048-10.24-3.328a129.4336 129.4336 0 0 1-20.1216-9.5744l-0.5632-0.3072c-3.072-1.8432-6.0928-3.7888-9.0112-5.8368l-0.5632-0.4096c-2.9696-2.0992-5.8368-4.352-8.6016-6.656a133.7344 133.7344 0 0 1-22.5792-24.576l-0.3584-0.512c-2.048-2.9184-3.9936-5.9392-5.8368-9.0112l-0.3584-0.6656c-1.792-3.1232-3.5328-6.3488-5.12-9.6256a131.3792 131.3792 0 0 1-7.7824-20.7872l-0.3072-1.1264c-0.9216-3.328-1.6384-6.7584-2.304-10.24v-0.768a743.2192 743.2192 0 0 0-203.8272 61.696V650.5984c0 3.4304 0 6.7584 0.512 10.24l0.3072 2.7136c0.256 1.9456 0.5632 3.8912 0.9216 5.7856 9.3184 51.2 56.6272 90.5728 113.408 90.5728zM424.3968 491.9296c0 2.2528 0 4.5568 0.3584 6.7584l0.3072 1.792c0.3072 2.4576 0.6144 5.12 1.1264 7.2704v0.5632a91.3408 91.3408 0 0 0 89.088 72.0384c3.1232 0 6.1952 0 9.2672-0.4608h0.768a91.3408 91.3408 0 0 0 73.728-54.784l0.5632-1.3824c0.8704-2.0992 1.6384-4.2496 2.3552-6.4512 0.3072-0.9728 0.5632-1.9456 0.8704-2.9184s0.9728-3.4816 1.3312-5.12 0.5632-2.8672 0.8192-4.3008 0.4608-2.816 0.6656-4.2496 0.3584-3.4816 0.4608-5.12 0.3072-4.0448 0.3072-6.0928a91.0848 91.0848 0 0 0-182.1696 0c0.0512 0.6656 0.1536 1.536 0.1536 2.4576z m320.768-487.2704H291.84a109.312 109.312 0 0 0-109.2096 109.1584V529.5104a785.664 785.664 0 0 1 201.9328-58.0096 132.0448 132.0448 0 0 1 262.2464 5.12 950.8864 950.8864 0 0 1 207.5136 63.744v-426.496a109.312 109.312 0 0 0-109.1584-109.2096z"  horiz-adv-x="1024" />
      
      <glyph glyph-name="huati" unicode="&#59105;" d="M794.8288 669.3376a404.48 404.48 0 0 1-295.936 119.552c-220.672-3.8912-400.4352-186.6752-400.64-407.4496A405.2992 405.2992 0 0 1 167.4752 153.6l-30.1568-96.5632a30.72 30.72 0 0 1 38.144-38.6048l96.256 28.5696a404.48 404.48 0 0 1 234.3936-74.1376h7.168a407.9616 407.9616 0 0 1 281.6 696.32z m-282.2656-655.36A364.544 364.544 0 0 0 291.84 83.3024a30.72 30.72 0 0 1-26.7264 4.5568l-82.7392-24.576 25.9072 83.0464a30.3104 30.3104 0 0 1-4.0448 26.5728 364.7488 364.7488 0 0 0-64.768 208.4864c0 198.6048 161.8944 363.0592 360.3968 366.5408a367.0528 367.0528 0 0 0 373.76-373.76c-4.096-195.328-165.8368-356.8128-361.0624-360.1408zM667.5456 429.1072a20.48 20.48 0 0 1 0 40.96h-69.3248l9.6768 70.1952a20.48 20.48 0 0 1-40.5504 5.632l-10.24-75.8272H474.5728l9.728 70.1952a20.48 20.48 0 0 1-40.6016 5.632l-10.24-75.8272h-88.576a20.48 20.48 0 0 1 0-40.96h82.688l-11.3152-81.92H344.8832a20.48 20.48 0 0 1 0-40.96H410.624l-10.6496-76.8a20.48 20.48 0 0 1 17.5104-23.0912 17.3568 17.3568 0 0 1 2.816 0 20.48 20.48 0 0 1 20.48 17.664l11.3664 82.5856h82.3296l-10.6496-76.8a20.48 20.48 0 0 1 17.4592-23.0912 18.0224 18.0224 0 0 1 2.8672 0 20.48 20.48 0 0 1 20.48 17.664l11.4176 82.5856h92.16a20.48 20.48 0 0 1 0 40.96h-86.9376l11.3152 81.92z m-127.6416-81.92H457.6256l11.3152 81.92h82.2784z"  horiz-adv-x="1024" />
      
      <glyph glyph-name="naozhong" unicode="&#59106;" d="M508.8256 758.528a403.456 403.456 0 1 1 403.4048-403.456 403.9168 403.9168 0 0 1-403.4048 403.456z m0-765.952a362.496 362.496 0 1 0 362.4448 362.496 362.9056 362.9056 0 0 0-362.4448-362.496zM526.4384 607.0272a20.48 20.48 0 0 1-40.96 0v-233.5744h-5.9392a20.48 20.48 0 0 1 0-40.96h5.9392v-11.9296a20.48 20.48 0 0 1 40.96 0v11.9296h241.8688a20.48 20.48 0 0 1 0 40.96h-241.8688zM128.6656 629.76l141.0048 131.9424a20.48 20.48 0 1 1-28.0064 29.9008L100.7104 659.6608A20.48 20.48 0 1 1 128.6656 629.76zM920.0128 659.6608l-141.0048 131.9424a20.48 20.48 0 0 1-27.9552-29.9008L892.0064 629.76a20.48 20.48 0 0 1 28.0064 29.9008z"  horiz-adv-x="1024" />
      
      <glyph glyph-name="meishi" unicode="&#59107;" d="M923.6992 71.424H93.696a20.48 20.48 0 0 1 0-40.96h830.0032a20.48 20.48 0 1 1 0 40.96zM144.9984 145.8176h719.1552a66.56 66.56 0 0 1 17.8688 130.6624 376.32 376.32 0 0 1-299.264 340.992 98.0992 98.0992 0 1 1-148.0704 0.8192 376.4224 376.4224 0 0 1-302.9504-340.736 66.56 66.56 0 0 1 13.2608-131.584z m307.2 536.1152A57.1904 57.1904 0 1 0 512 624.64h-7.0144a57.1392 57.1392 0 0 0-53.0432 57.2928z m-307.2-444.16h6.2464a20.48 20.48 0 0 1 20.48 19.968 333.3632 333.3632 0 0 0 333.2608 326.2976h6.7584a333.2608 333.2608 0 0 0 330.1888-326.1952 20.48 20.48 0 0 1 20.48-19.968h1.7408a25.6 25.6 0 1 0 0-51.2H144.9984a25.6 25.6 0 1 0 0 51.2zM304.128 386.4576a20.0192 20.0192 0 0 1 12.3904-4.1984A20.48 20.48 0 0 1 332.8 390.2976a236.3392 236.3392 0 0 0 177.2544 92.9792 20.48 20.48 0 0 1 0.512 40.96 277.6576 277.6576 0 0 1-210.2784-109.056 20.48 20.48 0 0 1 3.84-28.7232z"  horiz-adv-x="1024" />
      
      <glyph glyph-name="tishi" unicode="&#59108;" d="M890.2656 92.928h-54.3232v353.28a307.5072 307.5072 0 0 1-301.1072 307.2V812.032a20.48 20.48 0 0 1-40.96 0v-58.8288a307.456 307.456 0 0 1-301.1072-307.2v-353.28H138.24a20.48 20.48 0 0 1 0-40.96h243.0976a133.12 133.12 0 0 1 266.24 0h242.8928a20.48 20.48 0 0 1 0 40.96z m-375.9104-124.7232a92.5184 92.5184 0 0 0-92.16 83.7632h183.9104a92.5184 92.5184 0 0 0-91.7504-83.7632z m112.1792 124.7232H233.728v353.28a266.496 266.496 0 0 0 266.24 266.24h28.8768a266.5472 266.5472 0 0 0 266.24-266.24v-353.28zM697.7024 451.7888a20.48 20.48 0 0 1-20.48-20.48v-181.8624a20.48 20.48 0 0 1 40.96 0V431.3088a20.48 20.48 0 0 1-20.48 20.48z"  horiz-adv-x="1024" />
      
      <glyph glyph-name="quanyi" unicode="&#59109;" d="M513.8432 435.2A162.2016 162.2016 0 1 1 675.84 272.9472 162.3552 162.3552 0 0 1 513.8432 435.2z m0-283.4432A121.2416 121.2416 0 1 0 634.88 272.9472a121.3952 121.3952 0 0 0-121.0368-121.2416zM912.4864 755.0976a52.7872 52.7872 0 0 1-46.336 26.8288h-212.0192a53.3504 53.3504 0 0 1-46.592-27.3408l-75.8784-135.936q-8.8576 0.4608-17.8176 0.4608c-5.5808 0-11.1616 0-16.7424-0.4096L421.2736 754.5856a53.4016 53.4016 0 0 1-46.6432 27.3408H162.6112a53.4016 53.4016 0 0 1-46.08-80.3328L242.0736 486.912a346.112 346.112 0 1 1 544.2048-0.768L912.2816 701.44a52.8384 52.8384 0 0 1 0.2048 53.6576z m-760.6272-20.48a12.1856 12.1856 0 0 0 10.752 6.2464h212.0192a12.4928 12.4928 0 0 0 10.9056-6.3488l67.4816-120.8832a345.2416 345.2416 0 0 1-182.3232-94.5664l-118.784 203.2128a12.1856 12.1856 0 0 0-0.0512 12.4416z m361.984-766.9248A305.2032 305.2032 0 1 0 819.2 272.9472a305.5104 305.5104 0 0 0-305.3568-305.152z m363.0592 754.5856L757.76 518.4a345.9584 345.9584 0 0 1-182.016 95.0784l67.584 121.1392a12.3904 12.3904 0 0 0 10.8544 6.3488h212.0192a12.4416 12.4416 0 0 0 10.752-18.688z"  horiz-adv-x="1024" />
      
      <glyph glyph-name="tupian" unicode="&#59110;" d="M779.4688 761.8048H250.2656A158.0544 158.0544 0 0 1 92.16 604.16v-412.7744a158.0544 158.0544 0 0 1 157.9008-157.8496h529.408a158.0032 158.0032 0 0 1 157.8496 157.8496V604.16a158.0032 158.0032 0 0 1-157.8496 157.6448z m-529.2032-40.96h529.2032A116.992 116.992 0 0 0 896.3584 604.16v-207.4112c-118.784 83.3536-223.3856 75.1616-292.5056 51.6096-110.4384-37.6832-190.8224-133.12-222.6176-219.0336C288.1024 313.856 194.56 309.0432 133.12 290.6112V604.16a117.0432 117.0432 0 0 0 117.1456 116.6848z m646.0928-529.664a116.992 116.992 0 0 0-116.8896-116.8896H250.2656A117.0432 117.0432 0 0 0 133.12 191.1808v56.32c63.6416 22.9888 153.6 26.112 242.6368-70.7584a20.48 20.48 0 0 1 35.072 9.4208C428.9024 266.24 507.136 372.1216 617.0624 409.6c91.648 31.2832 188.0576 9.1136 279.296-63.9488zM325.4784 429.1072a92.8768 92.8768 0 1 1-92.8768 92.8768 92.9792 92.9792 0 0 1 92.8768-92.8768z m0 144.7424a51.9168 51.9168 0 1 0-51.9168-51.8656 51.968 51.968 0 0 0 51.9168 51.8656z"  horiz-adv-x="1024" />
      
      <glyph glyph-name="rili" unicode="&#59111;" d="M773.632 725.8112h-81.3056v48.4864a20.48 20.48 0 0 1-40.96 0v-48.4864H380.7744v48.4864a20.48 20.48 0 1 1-40.96 0v-48.4864H252.3136A162.6112 162.6112 0 0 1 89.9072 563.2v-408.2176a162.6112 162.6112 0 0 1 162.4064-162.4064H773.632A162.5088 162.5088 0 0 1 916.48 77.824a157.2864 157.2864 0 0 1 6.8608 14.1824c2.048 4.864 3.8912 9.8304 5.4784 14.9504a162.9184 162.9184 0 0 1 7.2704 48.2304V563.2a162.56 162.56 0 0 1-162.4576 162.6112z m-521.3184-40.96h87.5008V631.808a20.48 20.48 0 0 1 40.96 0V684.8512h270.592V631.808a20.48 20.48 0 0 1 40.96 0V684.8512h81.3056A121.5488 121.5488 0 0 0 895.0272 563.2v-23.808H130.8672V563.2a121.6 121.6 0 0 0 121.4464 121.6512z m0-651.1104a121.6 121.6 0 0 0-121.4464 121.4464V498.6368h764.16v-343.4496a121.2416 121.2416 0 0 0-121.3952-121.4464zM372.1728 351.488H287.9488a20.48 20.48 0 0 1 0-40.96h84.224a20.48 20.48 0 0 1 0 40.96zM557.6192 351.488H473.3952a20.48 20.48 0 0 1 0-40.96h84.224a20.48 20.48 0 0 1 0 40.96zM742.7072 351.488H658.432a20.48 20.48 0 0 1 0-40.96h84.2752a20.48 20.48 0 0 1 0 40.96zM372.1728 229.376H287.9488a20.48 20.48 0 0 1 0-40.96h84.224a20.48 20.48 0 0 1 0 40.96zM557.6192 229.376H473.3952a20.48 20.48 0 1 1 0-40.96h84.224a20.48 20.48 0 0 1 0 40.96z"  horiz-adv-x="1024" />
      
      <glyph glyph-name="quxiaorenwu" unicode="&#59112;" d="M763.2384 740.096h-56.32a104.8576 104.8576 0 0 1-103.68 90.4704H427.2128a104.8576 104.8576 0 0 1-103.68-90.4704h-56.32a139.1104 139.1104 0 0 1-138.752-138.9568v-503.04A139.1104 139.1104 0 0 1 267.4176-40.96h495.8208a139.1104 139.1104 0 0 1 138.9568 138.9568V601.1392a139.1104 139.1104 0 0 1-138.9568 138.9568z m-336.0256 49.5104h176.2304a63.8464 63.8464 0 0 0 63.7952-63.7952v-4.5568a64 64 0 0 0-39.8848-54.528h-0.3584c-1.6896-0.6656-3.4304-1.28-5.12-1.792l-1.1776-0.3072c-1.536-0.4096-3.072-0.8192-4.608-1.1264l-2.56-0.4096c-1.1776 0-2.304-0.4096-3.4816-0.512q-3.1232-0.3072-6.2976-0.3072H427.2128c-2.0992 0-4.1984 0-6.2464 0.3072-1.2288 0-2.3552 0.3584-3.5328 0.512l-2.56 0.4096c-1.536 0.3072-3.072 0.7168-4.608 1.1264l-1.1776 0.3072c-1.7408 0.512-3.4816 1.1264-5.12 1.792h-0.3584A64 64 0 0 0 363.52 721.1008v4.5568a63.8464 63.8464 0 0 0 63.6928 63.9488z m434.0224-691.5072A98.0992 98.0992 0 0 0 763.2384 0H267.4176a98.0992 98.0992 0 0 0-97.9968 97.9968V601.1392a98.0992 98.0992 0 0 0 97.9968 97.9968h58.5728v-0.6656c0.6656-2.4576 1.3824-5.12 2.2016-7.2192a9.216 9.216 0 0 0 0.4096-1.0752 105.1648 105.1648 0 0 1 62.3616-62.5664l2.816-1.024c1.7408-0.6144 3.5328-1.1264 5.12-1.6384s2.816-0.768 4.1984-1.0752l4.7104-1.024c1.8432-0.3584 3.7376-0.6144 5.6832-0.8704s2.4576-0.3584 3.7376-0.4608c3.2256-0.3072 6.5024-0.512 9.7792-0.512h176.2304c3.2768 0 6.5536 0 9.7792 0.512 1.28 0 2.5088 0.3072 3.7376 0.4608s3.84 0.512 5.6832 0.8704l4.7104 1.024c1.3824 0.3072 2.816 0.6656 4.1984 1.0752s3.584 1.024 5.12 1.6384l2.816 1.024a105.1648 105.1648 0 0 1 62.5664 62.5664l0.4096 1.0752c0.8192 2.3552 1.536 4.7616 2.2016 7.2192v0.6656h58.5728a98.0992 98.0992 0 0 0 97.9968-97.9968zM682.5984 489.472a20.48 20.48 0 0 1-28.928 0l-121.6-121.6L410.4704 489.472a20.48 20.48 0 1 1-28.9792-28.928l121.6-121.6-121.6-121.6a20.48 20.48 0 0 1 28.9792-28.9792l121.6 121.6 121.6-121.6a20.48 20.48 0 0 1 28.928 28.9792l-121.6 121.6 121.6 121.6a20.48 20.48 0 0 1 0 28.928z"  horiz-adv-x="1024" />
      
    </font>
</defs>
</svg>
